<?xml version="1.0" encoding="UTF-8"?><svg id="Layer_1" xmlns="http://www.w3.org/2000/svg" viewBox="0 0 16 16"><defs><style>.cls-1{fill:#fff;}</style></defs><path class="cls-1" d="m7.63,5.92c-.3.25-.6.51-.89.81-.28.28-.55.58-.81.89-.85-1.18-1.14-2.18-.81-2.51.33-.33,1.33-.04,2.51.81Z"/><path class="cls-1" d="m7.63,10.07c-1.18.85-2.18,1.14-2.51.81-.33-.33-.04-1.33.81-2.51.25.31.52.61.81.89.28.28.59.55.89.81Z"/><path class="cls-1" d="m10.72,6.53c-.16.35-.39.72-.65,1.09-.25-.31-.52-.61-.8-.89-.29-.29-.59-.56-.89-.8.37-.27.74-.49,1.09-.65.4-.19.75-.28,1.02-.28.18,0,.31.04.4.13.22.22.16.74-.15,1.41Z"/><path class="cls-1" d="m8.25,8.25c-.14.14-.36.14-.5,0-.14-.14-.14-.36,0-.5.07-.07.16-.1.25-.1s.18.03.25.1c.14.14.14.36,0,.5Z"/><path class="cls-1" d="m10.88,10.88c-.22.22-.74.16-1.41-.15-.35-.16-.72-.39-1.09-.65.31-.25.61-.52.89-.8.29-.29.56-.59.81-.89.85,1.18,1.14,2.18.81,2.51Z"/><path class="cls-1" d="m8.94,7.05c-.32-.32-.63-.6-.94-.85-.32.25-.64.54-.95.85s-.6.63-.85.94c.25.31.53.63.85.94.31.31.63.59.95.84.31-.25.63-.53.94-.84s.59-.63.85-.95c-.25-.31-.53-.63-.85-.94Zm-.37,1.52c-.16.16-.36.24-.57.24s-.41-.08-.57-.24c-.32-.32-.32-.83,0-1.14s.83-.32,1.14,0c.32.32.32.83,0,1.14Z"/><path class="cls-1" d="m15,5.92v-.83h-1.59v-1.53c0-.54-.43-.97-.97-.97H3.56c-.54,0-.97.43-.97.97v1.53h-1.59v.83h1.59v.83h-1.59v.83h1.59v.83h-1.59v.83h1.59v.83h-1.59v.83h1.59v1.53c0,.54.43.97.97.97h8.87c.54,0,.97-.43.97-.97v-1.53h1.59v-.83h-1.59v-.83h1.59v-.83h-1.59v-.83h1.59v-.83h-1.59v-.83h1.59Zm-3.8,5.28c-.18.18-.43.27-.72.27-.68,0-1.59-.45-2.48-1.11-.89.66-1.8,1.11-2.48,1.11-.29,0-.54-.08-.72-.27-.61-.61-.1-1.93.84-3.2-.94-1.27-1.45-2.59-.84-3.2.37-.37,1.05-.35,1.93.06.41.19.84.45,1.27.77.43-.32.86-.59,1.27-.77.88-.41,1.56-.43,1.93-.06.37.37.35,1.05-.06,1.93-.19.41-.45.84-.78,1.27.94,1.27,1.45,2.59.84,3.2Z"/></svg>